{"glyphs":{"0":{"ha":949,"x_min":0,"x_max":882,"o":"m 441 0 q 129 129 258 0 q 0 441 0 258 q 129 752 0 623 q 441 882 258 882 q 752 752 623 882 q 882 441 882 623 q 752 129 882 258 q 441 0 623 0 m 441 203 q 609 273 539 203 q 678 441 678 342 q 609 609 678 539 q 441 678 539 678 q 273 609 342 678 q 203 441 203 539 q 273 273 203 342 q 441 203 342 203 z "},"1":{"ha":339,"x_min":0,"x_max":271,"o":"m 271 0 l 68 0 l 68 678 l 0 678 l 0 882 l 271 882 l 271 0 z "},"2":{"ha":814,"x_min":0,"x_max":746,"o":"m 203 678 l 203 543 l 0 543 l 0 882 l 475 882 q 667 802 587 882 q 746 610 746 723 q 667 418 746 498 q 475 339 587 339 l 407 339 q 359 319 379 339 q 339 271 339 299 q 359 223 339 243 q 407 203 379 203 l 746 203 l 746 0 l 407 0 q 215 79 294 0 q 136 271 136 159 q 215 463 136 384 q 407 543 294 543 l 475 543 q 523 563 503 543 q 543 610 543 583 q 523 658 543 638 q 475 678 503 678 l 203 678 z "},"3":{"ha":746,"x_min":0,"x_max":678,"o":"m 407 339 l 271 339 l 271 543 l 407 543 q 455 563 435 543 q 475 610 475 583 q 455 658 475 638 q 407 678 435 678 l 203 678 l 203 543 l 0 543 l 0 882 l 407 882 q 599 802 519 882 q 678 610 678 723 q 619 441 678 513 q 678 271 678 368 q 599 79 678 159 q 407 0 519 0 l 68 0 l 68 203 l 407 203 q 455 223 435 203 q 475 271 475 243 q 455 319 475 299 q 407 339 435 339 z "},"4":{"ha":814,"x_min":0,"x_max":746,"o":"m 68 678 l 0 678 l 0 882 l 271 882 l 271 475 l 475 475 l 475 678 l 407 678 l 407 882 l 678 882 l 678 475 l 746 475 l 746 271 l 678 271 l 678 68 l 475 -136 l 475 271 l 68 271 l 68 678 z "},"5":{"ha":814,"x_min":0,"x_max":746,"o":"m 746 543 l 543 543 l 543 678 l 203 678 l 203 543 l 339 543 q 531 463 452 543 q 610 271 610 384 q 531 79 610 159 q 339 0 452 0 l 0 0 l 0 203 l 339 203 q 387 223 367 203 q 407 271 407 243 q 387 319 407 299 q 339 339 367 339 l 0 339 l 0 882 l 746 882 l 746 543 z "},"6":{"ha":814,"x_min":0,"x_max":746,"o":"m 226 339 q 273 273 243 303 q 441 203 342 203 l 475 203 q 523 223 503 203 q 543 271 543 243 q 523 319 543 299 q 475 339 503 339 l 226 339 m 746 882 l 746 610 l 543 610 l 543 678 l 441 678 q 273 609 342 678 q 226 543 243 578 l 475 543 q 667 463 587 543 q 746 271 746 384 q 667 79 746 159 q 475 0 587 0 l 441 0 q 129 129 258 0 q 0 441 0 258 q 129 752 0 623 q 441 882 258 882 l 746 882 z "},"7":{"ha":814,"x_min":-212,"x_max":958,"o":"m 203 678 l 203 543 l 0 543 l 0 882 l 958 882 l 76 0 l -212 0 l 467 678 l 203 678 z "},"8":{"ha":746,"x_min":0,"x_max":678,"o":"m 407 678 l 271 678 q 223 658 243 678 q 203 610 203 638 q 223 563 203 583 q 271 543 243 543 l 407 543 q 455 563 435 543 q 475 610 475 583 q 455 658 475 638 q 407 678 435 678 m 407 339 l 271 339 q 223 319 243 339 q 203 271 203 299 q 223 223 203 243 q 271 203 243 203 l 407 203 q 455 223 435 203 q 475 271 475 243 q 455 319 475 299 q 407 339 435 339 m 271 882 l 407 882 q 599 802 519 882 q 678 610 678 723 q 619 441 678 513 q 678 271 678 368 q 599 79 678 159 q 407 0 519 0 l 271 0 q 79 79 159 0 q 0 271 0 159 q 59 441 0 368 q 0 610 0 513 q 79 802 0 723 q 271 882 159 882 z "},"9":{"ha":814,"x_min":0,"x_max":746,"o":"m 520 543 q 473 609 503 578 q 305 678 404 678 l 271 678 q 223 658 243 678 q 203 610 203 638 q 223 563 203 583 q 271 543 243 543 l 520 543 m 0 0 l 0 271 l 203 271 l 203 203 l 305 203 q 473 273 404 203 q 520 339 503 303 l 271 339 q 79 418 159 339 q 0 610 0 498 q 79 802 0 723 q 271 882 159 882 l 305 882 q 617 752 488 882 q 746 441 746 623 q 617 129 746 258 q 305 0 488 0 l 0 0 z "},"\u0000":{"ha":0,"x_min":0,"x_max":0,"o":""}," ":{"ha":345,"x_min":0,"x_max":0,"o":""},"!":{"ha":339,"x_min":0,"x_max":271,"o":"m 271 203 l 271 0 l 68 0 l 68 203 l 271 203 m 68 678 l 0 678 l 0 882 l 271 882 l 271 271 l 68 271 l 68 678 z "},"\"":{"ha":543,"x_min":0,"x_max":475,"o":"m 203 543 l 0 543 l 0 882 l 203 882 l 203 543 m 475 543 l 271 543 l 271 882 l 475 882 l 475 543 z "},"#":{"ha":949,"x_min":0,"x_max":1017,"o":"m 136 339 l 136 543 l 0 543 l 0 746 l 136 746 l 136 882 l 339 882 l 339 746 l 543 746 l 543 882 l 746 882 l 746 746 l 882 746 l 882 543 l 746 543 l 746 339 l 1017 339 l 814 136 l 746 136 l 746 0 l 543 0 l 543 136 l 339 136 l 339 -136 l 136 68 l 136 136 l 0 136 l 0 339 l 136 339 m 339 543 l 339 339 l 543 339 l 543 543 l 339 543 z "},"$":{"ha":814,"x_min":0,"x_max":746,"o":"m 746 543 l 543 543 l 543 678 l 271 678 q 223 658 243 678 q 203 610 203 638 q 223 563 203 583 q 271 543 243 543 l 339 543 q 531 463 452 543 q 610 271 610 384 q 531 79 610 159 q 475 35 505 53 l 475 -136 l 271 -136 l 271 0 l 0 0 l 0 203 l 339 203 q 387 223 367 203 q 407 271 407 243 q 387 319 407 299 q 339 339 367 339 l 271 339 q 79 418 159 339 q 0 610 0 498 q 79 802 0 723 q 271 882 159 882 l 271 1017 l 475 1017 l 475 882 l 746 882 l 746 543 z "},"%":{"ha":814,"x_min":-212,"x_max":958,"o":"m 958 882 l 76 0 l -212 0 l 670 882 l 958 882 m 203 678 l 0 678 l 0 882 l 203 882 l 203 678 m 746 0 l 543 0 l 543 203 l 746 203 l 746 0 z "},"&":{"ha":814,"x_min":0,"x_max":746,"o":"m 271 0 q 79 79 159 0 q 0 271 0 159 q 59 441 0 368 q 0 610 0 513 q 79 802 0 723 q 271 882 159 882 l 610 882 l 610 678 l 271 678 q 223 658 243 678 q 203 610 203 638 q 223 563 203 583 q 271 543 243 543 l 475 543 l 475 610 l 678 610 l 678 543 l 746 543 l 746 339 l 678 339 l 678 0 l 271 0 m 271 203 l 475 203 l 475 339 l 271 339 q 223 319 243 339 q 203 271 203 299 q 223 223 203 243 q 271 203 243 203 z "},"'":{"ha":271,"x_min":0,"x_max":203,"o":"m 203 543 l 0 543 l 0 882 l 203 882 l 203 543 z "},"(":{"ha":543,"x_min":0,"x_max":475,"o":"m 441 678 q 273 609 342 678 q 203 441 203 539 q 273 273 203 342 q 441 203 342 203 l 475 203 l 475 0 l 441 0 q 129 129 258 0 q 0 441 0 258 q 129 752 0 623 q 441 882 258 882 l 475 882 l 475 678 l 441 678 z "},")":{"ha":543,"x_min":0,"x_max":475,"o":"m 34 678 l 0 678 l 0 882 l 34 882 q 346 752 216 882 q 475 441 475 623 q 346 129 475 258 q 34 0 216 0 l 0 0 l 0 203 l 34 203 q 202 273 132 203 q 271 441 271 342 q 202 609 271 539 q 34 678 132 678 z "},"*":{"ha":543,"x_min":0,"x_max":475,"o":"m 339 746 l 475 746 l 475 543 l 339 543 l 339 407 l 136 407 l 136 543 l 0 543 l 0 746 l 136 746 l 136 882 l 339 882 l 339 746 z "},"+":{"ha":543,"x_min":0,"x_max":475,"o":"m 339 543 l 475 543 l 475 339 l 339 339 l 339 203 l 136 203 l 136 339 l 0 339 l 0 543 l 136 543 l 136 678 l 339 678 l 339 543 z "},",":{"ha":271,"x_min":0,"x_max":203,"o":"m 203 -136 l 0 -136 l 0 203 l 203 203 l 203 -136 z "},"-":{"ha":475,"x_min":0,"x_max":407,"o":"m 407 339 l 0 339 l 0 543 l 407 543 l 407 339 z "},".":{"ha":271,"x_min":0,"x_max":203,"o":"m 203 0 l 0 0 l 0 203 l 203 203 l 203 0 z "},"/":{"ha":814,"x_min":-212,"x_max":958,"o":"m 958 882 l 76 0 l -212 0 l 670 882 l 958 882 z "},":":{"ha":271,"x_min":0,"x_max":203,"o":"m 203 0 l 0 0 l 0 203 l 203 203 l 203 0 m 203 407 l 0 407 l 0 610 l 203 610 l 203 407 z "},";":{"ha":271,"x_min":0,"x_max":203,"o":"m 203 -136 l 0 -136 l 0 203 l 203 203 l 203 -136 m 203 407 l 0 407 l 0 610 l 203 610 l 203 407 z "},"<":{"ha":543,"x_min":0,"x_max":475,"o":"m 441 678 q 273 609 342 678 q 203 441 203 539 q 273 273 203 342 q 441 203 342 203 l 475 203 l 475 0 l 441 0 q 129 129 258 0 q 0 441 0 258 q 129 752 0 623 q 441 882 258 882 l 475 882 l 475 678 l 441 678 z "},"=":{"ha":543,"x_min":0,"x_max":475,"o":"m 475 407 l 475 203 l 0 203 l 0 407 l 475 407 m 475 678 l 475 475 l 0 475 l 0 678 l 475 678 z "},">":{"ha":543,"x_min":0,"x_max":475,"o":"m 34 678 l 0 678 l 0 882 l 34 882 q 346 752 216 882 q 475 441 475 623 q 346 129 475 258 q 34 0 216 0 l 0 0 l 0 203 l 34 203 q 202 273 132 203 q 271 441 271 342 q 202 609 271 539 q 34 678 132 678 z "},"?":{"ha":814,"x_min":0,"x_max":746,"o":"m 271 203 l 271 0 l 68 0 l 68 203 l 271 203 m 271 339 l 271 271 l 68 271 l 68 543 l 475 543 q 523 563 503 543 q 543 610 543 583 q 523 658 543 638 q 475 678 503 678 l 203 678 l 203 610 l 0 610 l 0 882 l 475 882 q 667 802 587 882 q 746 610 746 723 q 667 418 746 498 q 475 339 587 339 l 271 339 z "},"@":{"ha":949,"x_min":0,"x_max":882,"o":"m 441 0 q 129 129 258 0 q 0 441 0 258 q 129 752 0 623 q 441 882 258 882 q 752 752 623 882 q 882 441 882 623 q 752 129 882 258 q 441 0 623 0 m 441 203 q 609 273 539 203 q 678 441 678 342 q 609 609 678 539 q 441 678 539 678 q 273 609 342 678 q 203 441 203 539 q 273 273 203 342 q 441 203 342 203 m 441 339 q 369 369 399 339 q 339 441 339 399 q 369 513 339 483 q 441 543 399 543 q 513 513 483 543 q 543 441 543 483 q 513 369 543 399 q 441 339 483 339 z "},"A":{"ha":882,"x_min":-136,"x_max":949,"o":"m 407 543 l 100 0 l -136 0 l 407 950 l 949 0 l 271 0 l 271 203 l 599 203 l 407 543 z "},"B":{"ha":814,"x_min":0,"x_max":746,"o":"m 271 339 l 271 203 l 475 203 q 523 223 503 203 q 543 271 543 243 q 523 319 543 299 q 475 339 503 339 l 271 339 m 475 678 l 271 678 l 271 543 l 475 543 q 523 563 503 543 q 543 610 543 583 q 523 658 543 638 q 475 678 503 678 m 475 882 q 667 802 587 882 q 746 610 746 723 q 687 441 746 513 q 746 271 746 368 q 667 79 746 159 q 475 0 587 0 l 407 0 l 271 136 l 271 0 l 68 0 l 68 678 l 0 678 l 0 882 l 475 882 z "},"C":{"ha":814,"x_min":0,"x_max":746,"o":"m 746 543 l 543 543 l 543 678 l 441 678 q 273 609 342 678 q 203 441 203 539 q 273 273 203 342 q 441 203 342 203 l 610 203 l 610 0 l 441 0 q 129 129 258 0 q 0 441 0 258 q 129 752 0 623 q 441 882 258 882 l 746 882 l 746 543 z "},"D":{"ha":882,"x_min":0,"x_max":814,"o":"m 373 882 q 685 752 555 882 q 814 441 814 623 q 685 129 814 258 q 373 0 555 0 l 339 0 l 339 203 l 373 203 q 541 273 471 203 q 610 441 610 342 q 541 609 610 539 q 373 678 471 678 l 271 678 l 271 -136 l 68 68 l 68 678 l 0 678 l 0 882 l 373 882 z "},"E":{"ha":814,"x_min":0,"x_max":746,"o":"m 746 882 l 746 678 l 271 678 l 271 203 l 543 203 l 543 271 l 746 271 l 746 0 l 68 0 l 68 678 l 0 678 l 0 882 l 746 882 m 475 339 l 339 339 l 339 543 l 678 543 l 475 339 z "},"F":{"ha":814,"x_min":0,"x_max":746,"o":"m 68 678 l 0 678 l 0 882 l 746 882 l 746 543 l 543 543 l 543 678 l 271 678 l 271 543 l 475 543 l 475 339 l 271 339 l 271 -136 l 68 68 l 68 678 z "},"G":{"ha":814,"x_min":0,"x_max":746,"o":"m 441 0 q 129 129 258 0 q 0 441 0 258 q 129 752 0 623 q 441 882 258 882 l 746 882 l 746 610 l 543 610 l 543 678 l 441 678 q 273 609 342 678 q 203 441 203 539 q 219 355 203 395 l 407 543 l 746 543 l 746 0 l 441 0 m 543 203 l 543 339 l 226 339 q 273 273 243 303 q 441 203 342 203 l 543 203 z "},"H":{"ha":814,"x_min":0,"x_max":746,"o":"m 68 678 l 0 678 l 0 882 l 271 882 l 271 543 l 543 543 l 543 678 l 475 678 l 475 882 l 746 882 l 746 0 l 543 0 l 543 475 l 407 339 l 271 339 l 271 -136 l 68 68 l 68 678 z "},"I":{"ha":339,"x_min":0,"x_max":271,"o":"m 271 0 l 68 0 l 68 678 l 0 678 l 0 882 l 271 882 l 271 0 z "},"J":{"ha":746,"x_min":0,"x_max":678,"o":"m 475 678 l 407 678 l 407 882 l 678 882 l 678 339 q 579 99 678 199 q 339 0 479 0 q 99 99 199 0 q 0 339 0 199 l 203 339 q 243 243 203 283 q 339 203 283 203 q 435 243 395 203 q 475 339 475 283 l 475 678 z "},"K":{"ha":814,"x_min":0,"x_max":746,"o":"m 68 678 l 0 678 l 0 882 l 271 882 l 271 484 l 746 958 l 746 669 l 517 441 l 746 212 l 746 -77 l 271 398 l 271 0 l 68 0 l 68 678 z "},"L":{"ha":746,"x_min":0,"x_max":678,"o":"m 68 678 l 0 678 l 0 882 l 271 882 l 271 203 l 475 203 l 475 271 l 678 271 l 678 0 l 68 0 l 68 678 z "},"M":{"ha":882,"x_min":0,"x_max":814,"o":"m 203 398 l 203 0 l 0 0 l 0 890 l 407 484 l 814 890 l 814 0 l 610 0 l 610 398 l 407 195 l 203 398 z "},"N":{"ha":814,"x_min":0,"x_max":746,"o":"m 203 466 l 203 0 l 0 0 l 0 958 l 543 416 l 543 882 l 746 882 l 746 -77 l 203 466 z "},"O":{"ha":949,"x_min":0,"x_max":882,"o":"m 441 203 q 609 273 539 203 q 678 441 678 342 q 609 609 678 539 q 441 678 539 678 q 273 609 342 678 q 203 441 203 539 q 273 273 203 342 q 441 203 342 203 m 441 0 q 129 129 258 0 q 0 441 0 258 q 129 752 0 623 q 441 882 258 882 q 752 752 623 882 q 882 441 882 623 q 752 129 882 258 q 441 0 623 0 z "},"P":{"ha":814,"x_min":0,"x_max":746,"o":"m 475 882 q 667 802 587 882 q 746 610 746 723 q 667 418 746 498 q 475 339 587 339 l 407 339 l 271 475 l 271 0 l 68 0 l 68 678 l 0 678 l 0 882 l 475 882 m 475 678 l 271 678 l 271 543 l 475 543 q 523 563 503 543 q 543 610 543 583 q 523 658 543 638 q 475 678 503 678 z "},"Q":{"ha":949,"x_min":0,"x_max":1103,"o":"m 658 343 q 678 441 678 388 q 609 609 678 539 q 441 678 539 678 q 273 609 342 678 q 203 441 203 539 q 273 273 203 342 q 441 203 342 203 q 501 211 473 203 l 271 441 l 560 441 l 658 343 m 656 56 q 441 0 560 0 q 129 129 258 0 q 0 441 0 258 q 129 752 0 623 q 441 882 258 882 q 752 752 623 882 q 882 441 882 623 q 807 194 882 302 l 1103 -102 l 814 -102 l 656 56 z "},"R":{"ha":814,"x_min":0,"x_max":899,"o":"m 475 882 q 667 802 587 882 q 746 610 746 723 q 667 418 746 498 q 550 349 615 367 l 899 0 l 610 0 l 271 339 l 271 0 l 68 0 l 68 678 l 0 678 l 0 882 l 475 882 m 475 678 l 271 678 l 271 543 l 475 543 q 523 563 503 543 q 543 610 543 583 q 523 658 543 638 q 475 678 503 678 z "},"S":{"ha":814,"x_min":0,"x_max":746,"o":"m 746 543 l 543 543 l 543 678 l 271 678 q 223 658 243 678 q 203 610 203 638 q 223 563 203 583 q 271 543 243 543 l 339 543 q 531 463 452 543 q 610 271 610 384 q 531 79 610 159 q 339 0 452 0 l 0 0 l 0 203 l 339 203 q 387 223 367 203 q 407 271 407 243 q 387 319 407 299 q 339 339 367 339 l 271 339 q 79 418 159 339 q 0 610 0 498 q 79 802 0 723 q 271 882 159 882 l 746 882 l 746 543 z "},"T":{"ha":678,"x_min":0,"x_max":610,"o":"m 203 678 l 0 678 l 0 882 l 610 882 l 610 678 l 407 678 l 407 -136 l 203 68 l 203 678 z "},"U":{"ha":814,"x_min":0,"x_max":746,"o":"m 68 678 l 0 678 l 0 882 l 271 882 l 271 339 q 311 243 271 283 q 407 203 351 203 q 503 243 463 203 q 543 339 543 283 l 543 678 l 475 678 l 475 882 l 746 882 l 746 339 q 647 99 746 199 q 407 0 547 0 q 167 99 267 0 q 68 339 68 199 l 68 678 z "},"V":{"ha":882,"x_min":-136,"x_max":949,"o":"m 407 -69 l -136 881 l 100 881 l 407 338 l 600 678 l 543 678 l 543 882 l 785 882 l 785 881 l 949 881 l 407 -69 z "},"W":{"ha":882,"x_min":0,"x_max":814,"o":"m 0 882 l 203 882 l 203 484 l 407 687 l 610 484 l 610 882 l 814 882 l 814 -9 l 407 398 l 0 -9 l 0 882 z "},"X":{"ha":814,"x_min":0,"x_max":746,"o":"m 229 441 l 0 669 l 0 958 l 373 585 l 746 958 l 746 669 l 517 441 l 746 212 l 746 -77 l 373 296 l 0 -77 l 0 212 l 229 441 z "},"Y":{"ha":814,"x_min":0,"x_max":746,"o":"m 475 398 l 475 -136 l 271 68 l 271 398 l 0 669 l 0 958 l 373 585 l 746 958 l 746 669 l 475 398 z "},"Z":{"ha":814,"x_min":-212,"x_max":958,"o":"m 203 678 l 203 543 l 0 543 l 0 882 l 958 882 l 279 203 l 543 203 l 543 339 l 746 339 l 746 0 l -212 0 l 467 678 l 203 678 z "},"[":{"ha":475,"x_min":0,"x_max":407,"o":"m 203 203 l 407 203 l 407 0 l 0 0 l 0 882 l 407 882 l 407 678 l 203 678 l 203 203 z "},"\\":{"ha":814,"x_min":-212,"x_max":958,"o":"m 958 0 l 670 0 l -212 882 l 76 882 l 958 0 z "},"]":{"ha":475,"x_min":0,"x_max":407,"o":"m 203 203 l 203 678 l 0 678 l 0 882 l 407 882 l 407 0 l 0 0 l 0 203 l 203 203 z "},"^":{"ha":271,"x_min":0,"x_max":203,"o":"m 203 543 l 0 543 l 0 882 l 203 882 l 203 543 z "},"_":{"ha":814,"x_min":0,"x_max":746,"o":"m 746 0 l 0 0 l 0 203 l 746 203 l 746 0 z "},"`":{"ha":271,"x_min":0,"x_max":203,"o":"m 203 543 l 0 543 l 0 882 l 203 882 l 203 543 z "},"a":{"ha":882,"x_min":-136,"x_max":949,"o":"m 407 543 l 100 0 l -136 0 l 407 950 l 949 0 l 271 0 l 271 203 l 599 203 l 407 543 z "},"b":{"ha":814,"x_min":0,"x_max":746,"o":"m 271 339 l 271 203 l 475 203 q 523 223 503 203 q 543 271 543 243 q 523 319 543 299 q 475 339 503 339 l 271 339 m 475 678 l 271 678 l 271 543 l 475 543 q 523 563 503 543 q 543 610 543 583 q 523 658 543 638 q 475 678 503 678 m 475 882 q 667 802 587 882 q 746 610 746 723 q 687 441 746 513 q 746 271 746 368 q 667 79 746 159 q 475 0 587 0 l 407 0 l 271 136 l 271 0 l 68 0 l 68 678 l 0 678 l 0 882 l 475 882 z "},"c":{"ha":814,"x_min":0,"x_max":746,"o":"m 746 543 l 543 543 l 543 678 l 441 678 q 273 609 342 678 q 203 441 203 539 q 273 273 203 342 q 441 203 342 203 l 610 203 l 610 0 l 441 0 q 129 129 258 0 q 0 441 0 258 q 129 752 0 623 q 441 882 258 882 l 746 882 l 746 543 z "},"d":{"ha":882,"x_min":0,"x_max":814,"o":"m 373 882 q 685 752 555 882 q 814 441 814 623 q 685 129 814 258 q 373 0 555 0 l 339 0 l 339 203 l 373 203 q 541 273 471 203 q 610 441 610 342 q 541 609 610 539 q 373 678 471 678 l 271 678 l 271 -136 l 68 68 l 68 678 l 0 678 l 0 882 l 373 882 z "},"e":{"ha":814,"x_min":0,"x_max":746,"o":"m 746 882 l 746 678 l 271 678 l 271 203 l 543 203 l 543 271 l 746 271 l 746 0 l 68 0 l 68 678 l 0 678 l 0 882 l 746 882 m 475 339 l 339 339 l 339 543 l 678 543 l 475 339 z "},"f":{"ha":814,"x_min":0,"x_max":746,"o":"m 68 678 l 0 678 l 0 882 l 746 882 l 746 543 l 543 543 l 543 678 l 271 678 l 271 543 l 475 543 l 475 339 l 271 339 l 271 -136 l 68 68 l 68 678 z "},"g":{"ha":814,"x_min":0,"x_max":746,"o":"m 441 0 q 129 129 258 0 q 0 441 0 258 q 129 752 0 623 q 441 882 258 882 l 746 882 l 746 610 l 543 610 l 543 678 l 441 678 q 273 609 342 678 q 203 441 203 539 q 219 355 203 395 l 407 543 l 746 543 l 746 0 l 441 0 m 543 203 l 543 339 l 226 339 q 273 273 243 303 q 441 203 342 203 l 543 203 z "},"h":{"ha":814,"x_min":0,"x_max":746,"o":"m 68 678 l 0 678 l 0 882 l 271 882 l 271 543 l 543 543 l 543 678 l 475 678 l 475 882 l 746 882 l 746 0 l 543 0 l 543 475 l 407 339 l 271 339 l 271 -136 l 68 68 l 68 678 z "},"i":{"ha":339,"x_min":0,"x_max":271,"o":"m 271 0 l 68 0 l 68 678 l 0 678 l 0 882 l 271 882 l 271 0 z "},"j":{"ha":746,"x_min":0,"x_max":678,"o":"m 475 678 l 407 678 l 407 882 l 678 882 l 678 339 q 579 99 678 199 q 339 0 479 0 q 99 99 199 0 q 0 339 0 199 l 203 339 q 243 243 203 283 q 339 203 283 203 q 435 243 395 203 q 475 339 475 283 l 475 678 z "},"k":{"ha":814,"x_min":0,"x_max":746,"o":"m 68 678 l 0 678 l 0 882 l 271 882 l 271 484 l 746 958 l 746 669 l 517 441 l 746 212 l 746 -77 l 271 398 l 271 0 l 68 0 l 68 678 z "},"l":{"ha":746,"x_min":0,"x_max":678,"o":"m 68 678 l 0 678 l 0 882 l 271 882 l 271 203 l 475 203 l 475 271 l 678 271 l 678 0 l 68 0 l 68 678 z "},"m":{"ha":882,"x_min":0,"x_max":814,"o":"m 203 398 l 203 0 l 0 0 l 0 890 l 407 484 l 814 890 l 814 0 l 610 0 l 610 398 l 407 195 l 203 398 z "},"n":{"ha":814,"x_min":0,"x_max":746,"o":"m 203 466 l 203 0 l 0 0 l 0 958 l 543 416 l 543 882 l 746 882 l 746 -77 l 203 466 z "},"o":{"ha":949,"x_min":0,"x_max":882,"o":"m 441 203 q 609 273 539 203 q 678 441 678 342 q 609 609 678 539 q 441 678 539 678 q 273 609 342 678 q 203 441 203 539 q 273 273 203 342 q 441 203 342 203 m 441 0 q 129 129 258 0 q 0 441 0 258 q 129 752 0 623 q 441 882 258 882 q 752 752 623 882 q 882 441 882 623 q 752 129 882 258 q 441 0 623 0 z "},"p":{"ha":814,"x_min":0,"x_max":746,"o":"m 475 882 q 667 802 587 882 q 746 610 746 723 q 667 418 746 498 q 475 339 587 339 l 407 339 l 271 475 l 271 0 l 68 0 l 68 678 l 0 678 l 0 882 l 475 882 m 475 678 l 271 678 l 271 543 l 475 543 q 523 563 503 543 q 543 610 543 583 q 523 658 543 638 q 475 678 503 678 z "},"q":{"ha":949,"x_min":0,"x_max":1103,"o":"m 658 343 q 678 441 678 388 q 609 609 678 539 q 441 678 539 678 q 273 609 342 678 q 203 441 203 539 q 273 273 203 342 q 441 203 342 203 q 501 211 473 203 l 271 441 l 560 441 l 658 343 m 656 56 q 441 0 560 0 q 129 129 258 0 q 0 441 0 258 q 129 752 0 623 q 441 882 258 882 q 752 752 623 882 q 882 441 882 623 q 807 194 882 302 l 1103 -102 l 814 -102 l 656 56 z "},"r":{"ha":814,"x_min":0,"x_max":899,"o":"m 475 882 q 667 802 587 882 q 746 610 746 723 q 667 418 746 498 q 550 349 615 367 l 899 0 l 610 0 l 271 339 l 271 0 l 68 0 l 68 678 l 0 678 l 0 882 l 475 882 m 475 678 l 271 678 l 271 543 l 475 543 q 523 563 503 543 q 543 610 543 583 q 523 658 543 638 q 475 678 503 678 z "},"s":{"ha":814,"x_min":0,"x_max":746,"o":"m 746 543 l 543 543 l 543 678 l 271 678 q 223 658 243 678 q 203 610 203 638 q 223 563 203 583 q 271 543 243 543 l 339 543 q 531 463 452 543 q 610 271 610 384 q 531 79 610 159 q 339 0 452 0 l 0 0 l 0 203 l 339 203 q 387 223 367 203 q 407 271 407 243 q 387 319 407 299 q 339 339 367 339 l 271 339 q 79 418 159 339 q 0 610 0 498 q 79 802 0 723 q 271 882 159 882 l 746 882 l 746 543 z "},"t":{"ha":678,"x_min":0,"x_max":610,"o":"m 203 678 l 0 678 l 0 882 l 610 882 l 610 678 l 407 678 l 407 -136 l 203 68 l 203 678 z "},"u":{"ha":814,"x_min":0,"x_max":746,"o":"m 68 678 l 0 678 l 0 882 l 271 882 l 271 339 q 311 243 271 283 q 407 203 351 203 q 503 243 463 203 q 543 339 543 283 l 543 678 l 475 678 l 475 882 l 746 882 l 746 339 q 647 99 746 199 q 407 0 547 0 q 167 99 267 0 q 68 339 68 199 l 68 678 z "},"v":{"ha":882,"x_min":-136,"x_max":949,"o":"m 407 -69 l -136 881 l 100 881 l 407 338 l 600 678 l 543 678 l 543 882 l 785 882 l 785 881 l 949 881 l 407 -69 z "},"w":{"ha":882,"x_min":0,"x_max":814,"o":"m 0 882 l 203 882 l 203 484 l 407 687 l 610 484 l 610 882 l 814 882 l 814 -9 l 407 398 l 0 -9 l 0 882 z "},"x":{"ha":814,"x_min":0,"x_max":746,"o":"m 229 441 l 0 669 l 0 958 l 373 585 l 746 958 l 746 669 l 517 441 l 746 212 l 746 -77 l 373 296 l 0 -77 l 0 212 l 229 441 z "},"y":{"ha":814,"x_min":0,"x_max":746,"o":"m 475 398 l 475 -136 l 271 68 l 271 398 l 0 669 l 0 958 l 373 585 l 746 958 l 746 669 l 475 398 z "},"z":{"ha":814,"x_min":-212,"x_max":958,"o":"m 203 678 l 203 543 l 0 543 l 0 882 l 958 882 l 279 203 l 543 203 l 543 339 l 746 339 l 746 0 l -212 0 l 467 678 l 203 678 z "},"{":{"ha":543,"x_min":0,"x_max":475,"o":"m 441 678 q 273 609 342 678 q 203 441 203 539 q 273 273 203 342 q 441 203 342 203 l 475 203 l 475 0 l 441 0 q 129 129 258 0 q 0 441 0 258 q 129 752 0 623 q 441 882 258 882 l 475 882 l 475 678 l 441 678 z "},"|":{"ha":271,"x_min":0,"x_max":203,"o":"m 203 0 l 0 0 l 0 882 l 203 882 l 203 0 z "},"}":{"ha":543,"x_min":0,"x_max":475,"o":"m 34 678 l 0 678 l 0 882 l 34 882 q 346 752 216 882 q 475 441 475 623 q 346 129 475 258 q 34 0 216 0 l 0 0 l 0 203 l 34 203 q 202 273 132 203 q 271 441 271 342 q 202 609 271 539 q 34 678 132 678 z "},"~":{"ha":475,"x_min":0,"x_max":407,"o":"m 407 339 l 0 339 l 0 543 l 407 543 l 407 339 z "}}}
